<?xml version="1.0" encoding="UTF-8" standalone="no"?>
<!DOCTYPE svg PUBLIC "-//W3C//DTD SVG 1.1//EN"
 "http://www.w3.org/Graphics/SVG/1.1/DTD/svg11.dtd">
<!-- Generated by graphviz version 2.38.0 (20140413.2041)
 -->
<!-- Title: g Pages: 1 -->
<svg width="134pt" height="188pt"
 viewBox="0.00 0.00 134.00 188.00" xmlns="http://www.w3.org/2000/svg" xmlns:xlink="http://www.w3.org/1999/xlink">
<g id="graph0" class="graph" transform="scale(1 1) rotate(0) translate(4 184)">
<title>g</title>
<polygon fill="white" stroke="none" points="-4,4 -4,-184 130,-184 130,4 -4,4"/>
<!-- a -->
<g id="node1" class="node"><title>a</title>
<ellipse fill="none" stroke="black" cx="63" cy="-162" rx="27" ry="18"/>
<text text-anchor="middle" x="63" y="-158.3" font-family="Times,serif" font-size="14.00">a</text>
</g>
<!-- b -->
<g id="node2" class="node"><title>b</title>
<ellipse fill="none" stroke="black" cx="27" cy="-90" rx="27" ry="18"/>
<text text-anchor="middle" x="27" y="-86.3" font-family="Times,serif" font-size="14.00">b</text>
</g>
<!-- a&#45;&gt;b -->
<g id="edge1" class="edge"><title>a&#45;&gt;b</title>
<path fill="none" stroke="black" d="M54.6504,-144.765C51.2426,-138.138 47.1797,-130.238 43.2314,-122.561"/>
<polygon fill="black" stroke="black" points="31.3152,-110.323 40.2081,-105.75 41.1228,-107.528 32.2299,-112.102 31.3152,-110.323"/>
<polyline fill="none" stroke="black" points="35.3043,-107.147 37.5911,-111.594 "/>
<polygon fill="black" stroke="black" points="43.0793,-122.265 36.778,-118.759 37.5911,-111.594 43.8923,-115.1 43.0793,-122.265"/>
</g>
<!-- c -->
<g id="node3" class="node"><title>c</title>
<ellipse fill="none" stroke="black" cx="99" cy="-90" rx="27" ry="18"/>
<text text-anchor="middle" x="99" y="-86.3" font-family="Times,serif" font-size="14.00">c</text>
</g>
<!-- a&#45;&gt;c -->
<g id="edge2" class="edge"><title>a&#45;&gt;c</title>
<path fill="none" stroke="black" d="M71.3496,-144.765C74.3939,-138.845 77.961,-131.909 81.5022,-125.024"/>
<polygon fill="black" stroke="black" points="85.7919,-105.75 94.6848,-110.323 93.7701,-112.102 84.8772,-107.528 85.7919,-105.75"/>
<polyline fill="none" stroke="black" points="90.6957,-107.147 88.4089,-111.594 "/>
<polygon fill="black" stroke="black" points="91.5214,-113.194 83.8354,-120.487 85.2964,-109.993 91.5214,-113.194"/>
<polygon fill="black" stroke="black" points="78.9316,-119.089 87.8245,-123.663 86.9098,-125.441 78.0169,-120.868 78.9316,-119.089"/>
<polyline fill="none" stroke="black" points="83.8354,-120.487 81.5487,-124.933 "/>
</g>
<!-- d -->
<g id="node4" class="node"><title>d</title>
<ellipse fill="none" stroke="black" cx="63" cy="-18" rx="27" ry="18"/>
<text text-anchor="middle" x="63" y="-14.3" font-family="Times,serif" font-size="14.00">d</text>
</g>
<!-- b&#45;&gt;d -->
<g id="edge4" class="edge"><title>b&#45;&gt;d</title>
<path fill="none" stroke="black" d="M35.3496,-72.7646C39.7115,-64.2831 45.1469,-53.7144 50.0413,-44.1974"/>
<polygon fill="black" stroke="black" points="54.6957,-35.1473 54.1239,-46.0983 52.4089,-39.5938 50.1221,-44.0402 50.1221,-44.0402 50.1221,-44.0402 52.4089,-39.5938 46.1203,-41.9821 54.6957,-35.1473 54.6957,-35.1473"/>
</g>
<!-- c&#45;&gt;d -->
<g id="edge3" class="edge"><title>c&#45;&gt;d</title>
<path fill="none" stroke="black" d="M90.6504,-72.7646C86.97,-65.6084 82.5255,-56.9662 78.2864,-48.7236"/>
<polygon fill="black" stroke="black" points="67.3152,-38.3234 76.2081,-33.7498 77.1228,-35.5284 68.2299,-40.1019 67.3152,-38.3234"/>
<polyline fill="none" stroke="black" points="71.3043,-35.1473 73.5911,-39.5937 "/>
<polygon fill="black" stroke="black" points="81.2771,-46.8859 73.5911,-39.5937 75.0521,-50.0874 81.2771,-46.8859"/>
</g>
</g>
</svg>
